PathFileType	4	(X/Y/Z)	/Users/niels/Desktop/University/Third Semester/Perception and Action/Exam/Gymnastics Motion Tracking/Code for Gym Tracking/Analyzed Data/Webcam_Backflip/id3_4_baseline_Sports2D/id3_4_baseline_Sports2D_px_person00.trc
DataRate	CameraRate	NumFrames	NumMarkers	Units	OrigDataRate	OrigDataStartFrame	OrigNumFrames
29.8125	29.8125	11	22	m	29.8125	140	160
Frame#	Time	Hip			RHip			RKnee			RAnkle			RBigToe			RSmallToe			RHeel			LHip			LKnee			LAnkle			LBigToe			LSmallToe			LHeel			Neck			Head			Nose			RShoulder			RElbow			RWrist			LShoulder			LElbow			LWrist		
		X1	Y1	Z1	X2	Y2	Z2	X3	Y3	Z3	X4	Y4	Z4	X5	Y5	Z5	X6	Y6	Z6	X7	Y7	Z7	X8	Y8	Z8	X9	Y9	Z9	X10	Y10	Z10	X11	Y11	Z11	X12	Y12	Z12	X13	Y13	Z13	X14	Y14	Z14	X15	Y15	Z15	X16	Y16	Z16	X17	Y17	Z17	X18	Y18	Z18	X19	Y19	Z19	X20	Y20	Z20	X21	Y21	Z21	X22	Y22	Z22
140	4.696016771488469	1.1876165377795014	-0.5436173844369889	0.0	1.1971141780108419	-0.5408609704984062	0.0	1.222793354733671	-0.6573567924955165	0.0	1.2006148211504857	-0.779636590985799	0.0	1.2400984545835232	-0.7966536781421977	0.0	1.2327794982355853	-0.8014234521603787	0.0	1.189471340771071	-0.7932225404140801	0.0	1.1807554470549773	-0.5399880598894697	0.0	1.1959385479377949	-0.6547408192752321	0.0	1.1701551404981434	-0.7654259711217029	0.0	1.2135453016085258	-0.7752316700878512	0.0	1.1966863937083507	-0.7750195211204856	0.0	1.1607687756612306	-0.7806345277498483	0.0	1.2004878728959723	-0.38679191632006227	0.0	1.2114243692401474	-0.312798455131645	0.0	1.233159115131059	-0.3536040542043329	0.0	1.2006930719299405	-0.4089632038631193	0.0	1.204789545854511	-0.4883329743171844	0.0	1.2584753877492645	-0.5361968585049144	0.0	1.1861370668061204	-0.4069944309402814	0.0	1.1788365687740634	-0.48768970326832156	0.0	1.2209668189675622	-0.5397322148984715	0.0
141	4.729559748427672	1.185511623601773	-0.5445209972503335	0.0	1.1944902010728884	-0.5414860872023877	0.0	1.2295918476980854	-0.6564034953557629	0.0	1.2003924980042562	-0.7763054174552333	0.0	1.2408437222062536	-0.7933381124696258	0.0	1.2332956771117107	-0.7980864392758654	0.0	1.1883356068744573	-0.7892666719435103	0.0	1.1787484311385779	-0.5406571190423966	0.0	1.2018306523086189	-0.6545281906426137	0.0	1.1708122957373412	-0.7628417291106885	0.0	1.2145127424600997	-0.7723081332052996	0.0	1.1976364071631445	-0.7718527380674706	0.0	1.1609914679545317	-0.7774014516989357	0.0	1.2001939270009891	-0.38771021900161307	0.0	1.2130276266999083	-0.31438828392196894	0.0	1.2331767191557814	-0.35429467100825207	0.0	1.1997091226545682	-0.40968403376319484	0.0	1.2026374412619634	-0.48936598026431855	0.0	1.2546682889775302	-0.5395775343604905	0.0	1.1858298625810566	-0.4077674805527232	0.0	1.175999281728863	-0.48863833714996213	0.0	1.216295737714316	-0.5426644721115638	0.0
142	4.763102725366876	1.1832066623651178	-0.5475292179359862	0.0	1.1916594564243987	-0.5442859080063018	0.0	1.2371414896024753	-0.6566715979755315	0.0	1.2003760695543046	-0.7735334723897248	0.0	1.2421477252126316	-0.7908164965148791	0.0	1.234123227902858	-0.7955021486407923	0.0	1.1873958373791405	-0.7859734611949208	0.0	1.1768655221158706	-0.5435025727117413	0.0	1.2084463270123693	-0.6555633712732181	0.0	1.1717347968327556	-0.7608752865039993	0.0	1.216013821085968	-0.7705694412247006	0.0	1.199588385566441	-0.7696623331529512	0.0	1.1613385728430963	-0.7747232892247952	0.0	1.199863440198793	-0.3906420849371749	0.0	1.2144168587120654	-0.31820293253862336	0.0	1.23313437400783	-0.357141703218224	0.0	1.1985265099579554	-0.4124890070468883	0.0	1.20016079348089	-0.4927517810288684	0.0	1.250373401321786	-0.5456015020796534	0.0	1.185498899979674	-0.4105101452767256	0.0	1.1726808874325945	-0.4915148224810676	0.0	1.2113548052612884	-0.5474297269017423	0.0
143	4.796645702306079	1.1809052236429365	-0.5529384315559283	0.0	1.1889885176401953	-0.5495248161755643	0.0	1.2449040932145514	-0.6585125379317747	0.0	1.2006664588199105	-0.7718971506035642	0.0	1.2440181141078872	-0.7895848962921227	0.0	1.2353285245725842	-0.7941970136742327	0.0	1.1868234968536784	-0.7840155452211087	0.0	1.175180991898356	-0.5488065717845871	0.0	1.2151364549992312	-0.6580984460459471	0.0	1.1728087122905235	-0.7600685659757268	0.0	1.2178509667136426	-0.770636726100329	0.0	1.2021604832736825	-0.7690800383803217	0.0	1.1617540551792103	-0.7731523055722666	0.0	1.1993550886528728	-0.3958136325163402	0.0	1.2153589484064338	-0.3243377802984365	0.0	1.2329661807228245	-0.36248613569302773	0.0	1.1972966087538452	-0.4176443288531881	0.0	1.1974870155082629	-0.4985848384089278	0.0	1.2458365278428447	-0.5541348891957956	0.0	1.185004945284055	-0.41547681093279426	0.0	1.1692140404768632	-0.49652535638469064	0.0	1.2067107039226086	-0.553857881895289	0.0
144	4.830188679245282	1.1788995044849784	-0.5608818653957667	0.0	1.1868432151338044	-0.557327248729135	0.0	1.2522463145549052	-0.66230144372465	0.0	1.2012700290801814	-0.7721013511693088	0.0	1.246125853604529	-0.7902032568202975	0.0	1.236769132688776	-0.794754072650953	0.0	1.186701044259262	-0.7840608221964539	0.0	1.1737612110895679	-0.5567107936089609	0.0	1.2212711776424878	-0.6624045188655497	0.0	1.173878496213975	-0.7610905640038742	0.0	1.219529165481266	-0.7729837343383089	0.0	1.2046288489290005	-0.770720713960048	0.0	1.162141686016648	-0.7733877378977796	0.0	1.1985328967061035	-0.40326663931700474	0.0	1.2157071787131766	-0.3326584368929789	0.0	1.2325659718834805	-0.3703026967810019	0.0	1.1960978870829455	-0.42527038674656154	0.0	1.1948251685762799	-0.5068236012890059	0.0	1.2413442086273423	-0.5649635363168005	0.0	1.1841559909215431	-0.4227802051181186	0.0	1.165930189456389	-0.5038172259391278	0.0	1.2026604960942506	-0.562017624761969	0.0
145	4.863731656184486	1.177451711266523	-0.5712108041251449	0.0	1.1854295612604697	-0.5675923463551897	0.0	1.2584580349552115	-0.66837220233258	0.0	1.2020659583731823	-0.7748557205406571	0.0	1.248040613558536	-0.793177353137184	0.0	1.2381173746660754	-0.7976954578102593	0.0	1.1869409721408635	-0.7866665929175574	0.0	1.1726999893459487	-0.5671200698774773	0.0	1.2263629212002047	-0.6687265406147799	0.0	1.1747915807184468	-0.7645426335015462	0.0	1.2205800196667298	-0.7779346759779207	0.0	1.2064206429152757	-0.775037644359934	0.0	1.162418057845626	-0.7760177449758446	0.0	1.1972898499126674	-0.41279363264742014	0.0	1.2153085449097498	-0.3427832685619515	0.0	1.231767216093028	-0.38021163021815263	0.0	1.1948445567570956	-0.43523211169129794	0.0	1.1923562403062773	-0.5172349048681797	0.0	1.2371616509951835	-0.5777287739706032	0.0	1.1827831634901524	-0.43229409964167437	0.0	1.1631257588713784	-0.5134069855612354	0.0	1.1993237042427392	-0.5720982051226302	0.0
146	4.897274633123689	1.1766403124215221	-0.5833172224182198	0.0	1.1847040489064202	-0.579813235645393	0.0	1.2628453968356832	-0.676871079190678	0.0	1.2028738959082432	-0.7806567513398381	0.0	1.249494821431588	-0.7987435581810728	0.0	1.2389824733190375	-0.8032697809168924	0.0	1.1874046585614941	-0.7921557299042636	0.0	1.1720833691423826	-0.5795221570427423	0.0	1.2300557706763398	-0.6771614920504231	0.0	1.1754230190048132	-0.7708029916993714	0.0	1.2207002945337044	-0.785728624068437	0.0	1.207285739880909	-0.7821865398859605	0.0	1.16255995562165	-0.7813966374690395	0.0	1.1955612013928911	-0.42389051524548493	0.0	1.2139693402091187	-0.3541583603445939	0.0	1.2303793976321749	-0.39163061927430304	0.0	1.1933570776790785	-0.446995279447736	0.0	1.190170649730877	-0.5292933671771934	0.0	1.2334412906755128	-0.5918182732074907	0.0	1.1808194364464122	-0.4435442333570937	0.0	1.161011517947596	-0.5249690481229431	0.0	1.1966628646382587	-0.5840412094527695	0.0
147	4.930817610062892	1.1763143611824163	-0.5961166788031045	0.0	1.1844055406996348	-0.5929973731927132	0.0	1.2648430402851034	-0.6875824549036961	0.0	1.2035454877620884	-0.7895051930888339	0.0	1.2504081509580622	-0.806676754887378	0.0	1.2389675577915256	-0.8112711534727005	0.0	1.188035876007173	-0.800435338218142	0.0	1.171908183645744	-0.5929333319257234	0.0	1.2320698625049356	-0.68748727429951	0.0	1.1756920345751098	-0.7799034003021247	0.0	1.2198007628563123	-0.7964063487433205	0.0	1.207206773462799	-0.7918829797039385	0.0	1.162620950534428	-0.7895725459047719	0.0	1.1933250872629464	-0.4357448064297883	0.0	1.2115472386123327	-0.36609832793097524	0.0	1.2282748693651162	-0.403797951085466	0.0	1.1914932460352654	-0.45958658361274696	0.0	1.1882891365383101	-0.5421205601008589	0.0	1.2302212264802745	-0.6063064758039578	0.0	1.1783229618282987	-0.45565281822564746	0.0	1.1596539042778677	-0.5377011333844526	0.0	1.1945622868287997	-0.5972912139498676	0.0
148	4.964360587002096	1.1761684402960617	-0.6082986811857063	0.0	1.1841770579600481	-0.6058319642954714	0.0	1.264078555180566	-0.6997734308628916	0.0	1.2039907140880521	-0.8007225689227189	0.0	1.2507566938862547	-0.8162161708988174	0.0	1.2377655484279835	-0.820989403887739	0.0	1.1888049545014319	-0.8108387234668701	0.0	1.1719992759096665	-0.6060650543687642	0.0	1.2321932049016175	-0.6990087252498778	0.0	1.1756312988501418	-0.7913058271178761	0.0	1.2181561356521204	-0.8094049242144356	0.0	1.2064729897806992	-0.8033002289600117	0.0	1.1627221282569598	-0.8000782882739939	0.0	1.1906027846986493	-0.4473059877472079	0.0	1.2080951326952787	-0.37772682786660516	0.0	1.2254576119623442	-0.41573002934136066	0.0	1.1892075672201816	-0.4717820346853231	0.0	1.186722280937789	-0.554576905058031	0.0	1.2274847740672559	-0.6200631904593272	0.0	1.1754311500336603	-0.4674617289006755	0.0	1.158921555259521	-0.5504445900499917	0.0	1.1930011420372857	-0.6108163153580012	0.0
149	4.997903563941299	1.175829577159865	-0.61857552593195	0.0	1.1836628676933207	-0.6169067386616152	0.0	1.2603984592870001	-0.712076521064719	0.0	1.204180412905117	-0.8129657811575338	0.0	1.2504893479430128	-0.8261736060521886	0.0	1.2354088276998005	-0.8312968641104911	0.0	1.1896215528538945	-0.8221444087105684	0.0	1.1720169518861467	-0.6174889309140666	0.0	1.2303025373509517	-0.7104983280854269	0.0	1.1754281910930877	-0.8037355064024778	0.0	1.2163902919962881	-0.823228101046501	0.0	1.2056938708190343	-0.8151051948052875	0.0	1.1629714706028997	-0.8118059646726578	0.0	1.1874641856819501	-0.45739720952544655	0.0	1.2039233739124913	-0.3879355950632311	0.0	1.2220673504177721	-0.42627831798498966	0.0	1.186500512613496	-0.48234452529797445	0.0	1.1854604702983738	-0.5654258816067214	0.0	1.2252006194731648	-0.6318907429346676	0.0	1.1723023274810986	-0.4777613447589606	0.0	1.158546991051433	-0.5618655259023543	0.0	1.1920570321972137	-0.6231853087694615	0.0
150	5.031446540880502	1.1748903548640657	-0.6257347017775389	0.0	1.1825194952713334	-0.6248173492881602	0.0	1.2538595829609684	-0.7225535334891784	0.0	1.204127153687014	-0.8244089718881646	0.0	1.249533883012863	-0.8352092860930067	0.0	1.232395884983227	-0.8408038270907067	0.0	1.1903492167852752	-0.8327951704253814	0.0	1.1715641449603595	-0.6257151935486335	0.0	1.2263760793980847	-0.7202983069637467	0.0	1.1753181791051146	-0.8153614159550223	0.0	1.2151328928404526	-0.8357102172473126	0.0	1.2054382358125026	-0.8256935560730886	0.0	1.1633662192244374	-0.8231563380217102	0.0	1.1840183084379423	-0.4648060125175198	0.0	1.1995168176087805	-0.39545814207243396	0.0	1.2183224858825408	-0.4342346220471759	0.0	1.183323969118428	-0.49009151135827705	0.0	1.1843492530867963	-0.5734320281148166	0.0	1.223309532436341	-0.6405182543289434	0.0	1.1690785731016335	-0.4854078122833891	0.0	1.1582637377790914	-0.5705169045035292	0.0	1.1917194428162041	-0.6326729674571099	0.0
